<?xml version="1.0" standalone="no"?><!DOCTYPE svg PUBLIC "-//W3C//DTD SVG 1.1//EN" "http://www.w3.org/Graphics/SVG/1.1/DTD/svg11.dtd"><svg t="1736903928850" class="icon" viewBox="0 0 1024 1024" version="1.1" xmlns="http://www.w3.org/2000/svg" p-id="4304" data-darkreader-inline-fill="" xmlns:xlink="http://www.w3.org/1999/xlink" width="200" height="200"><path d="M283.332267 958.737067c0.093867-1.416533 0.2816-2.824533 0.2816-4.241067 0.017067-31.428267 0.017067-62.856533 0.008533-94.2848 0-5.8368-0.0512-5.8624-6.024533-5.879467-5.12-0.017067-10.24-0.059733-15.36 0.008534-2.312533 0.034133-3.490133-0.8192-3.328-3.234134 0.068267-0.989867 0-1.988267 0-2.986666 0.017067-199.799467 0.042667-399.5904-0.042667-599.389867 0-4.232533 1.2032-6.152533 5.3504-7.5008 47.957333-15.607467 96.708267-28.074667 146.432-36.48 23.594667-3.985067 47.325867-7.415467 71.1168-9.975467 18.030933-1.9456 36.2496-2.670933 54.4-2.926933 20.002133-0.273067 40.1152-0.426667 60.014933 1.237333 28.3648 2.372267 56.695467 5.751467 84.846934 9.949867 55.074133 8.2176 109.0304 21.486933 162.158933 38.152533 4.309333 1.348267 5.623467 3.217067 5.623467 7.714134-0.110933 199.6544-0.085333 399.3088-0.068267 598.9632 0 6.4512 0 6.442667-6.485333 6.4512-4.548267 0-9.105067 0.034133-13.653334 0.008533-2.304-0.017067-3.7888 0.597333-3.7888 3.336533 0.068267 33.416533 0.085333 66.833067 0.136534 100.2496 0 0.273067 0.162133 0.5376 0.247466 0.810667h-110.933333c0.119467-1.408 0.3328-2.816 0.3328-4.224 0.017067-31.5648 0.017067-63.1296 0.008533-94.6944 0-5.5296-0.0256-5.546667-5.7856-5.546667h-309.248c-5.674667 0-5.691733 0.017067-5.691733 5.5552-0.008533 31.419733-0.008533 62.848 0.017067 94.267734 0 1.544533 0.238933 3.0976 0.366933 4.642133-36.974933 0.017067-73.9584 0.017067-110.933333 0.017067z m-5.410134-469.76c0 75.374933 0 150.749867 0.008534 226.133333 0 5.640533 0.136533 5.777067 5.717333 5.7856 20.625067 0.017067 41.2416 0 61.866667 0.008533 5.691733 0 5.700267 0.017067 5.700266 5.5552 0 34.56 0.068267 69.12-0.085333 103.68-0.017067 3.9936 1.262933 5.1712 5.085867 5.12 12.0832-0.162133 24.174933-0.0512 36.266666-0.0512 119.6032 0 239.214933-0.0256 358.818134 0.059734 4.113067 0 5.282133-1.297067 5.265066-5.376-0.145067-34.2784-0.085333-68.548267-0.085333-102.826667 0-6.161067 0-6.1696 6.365867-6.1696h43.52c5.828267 0 11.665067 0.017067 17.493333-0.008533 5.7088-0.017067 5.819733-0.145067 5.870933-5.649067 0.008533-0.571733 0-1.134933 0-1.706667v-449.706666c0-6.724267 0-6.749867-6.493866-8.6784-55.278933-16.418133-111.317333-29.44-168.576-36.608-26.146133-3.2768-52.4288-6.144-78.737067-7.3472-31.488-1.442133-63.086933-1.083733-94.455467 3.054933-25.002667 3.3024-50.090667 6.254933-74.9056 10.658133-41.506133 7.355733-82.338133 17.698133-122.6496 30.088534-4.693333 1.442133-6.0928 3.490133-6.084266 8.277333 0.136533 75.2384 0.093867 150.4768 0.093866 225.706667z m96.930134 407.466666c0-12.356267-0.085333-24.712533 0.0512-37.0688 0.042667-3.592533-1.092267-5.0688-4.881067-5.0432-20.881067 0.162133-41.7536 0.1792-62.634667 0.1024-3.669333-0.017067-4.898133 1.2288-4.872533 4.957867 0.136533 24.8576 0.145067 49.706667-0.008533 74.564267-0.0256 3.771733 1.083733 4.8128 4.821333 4.778666 20.736-0.170667 41.472-0.1792 62.208 0 4.0448 0.034133 5.469867-1.0752 5.393067-5.230933-0.221867-12.347733-0.0768-24.704-0.0768-37.060267z m358.7072 0.4352c0 12.356267 0.128 24.721067-0.0768 37.0688-0.059733 3.780267 1.1776 4.8128 4.8896 4.7872 20.881067-0.162133 41.762133-0.162133 62.634666 0 3.694933 0.0256 4.9408-1.015467 4.923734-4.7872a7007.488 7007.488 0 0 1 0-74.5728c0.017067-3.754667-1.348267-4.949333-4.974934-4.9408-20.736 0.068267-41.472 0.068267-62.208-0.119466-4.189867-0.042667-5.3248 1.518933-5.256533 5.495466 0.187733 12.347733 0.068267 24.712533 0.068267 37.0688zM331.946667 787.703467c0-14.216533 0.008533-28.433067-0.008534-42.6496 0-2.7648 0.093867-5.2736-4.1216-5.2224-15.2064 0.196267-30.421333 0.136533-45.636266 0.0256-2.986667-0.0256-4.0704 1.1264-4.0704 3.968 0.0256 29.0048 0.0256 58.001067-0.017067 87.005866 0 3.0464 1.211733 4.3264 4.3264 4.3008 14.9248-0.1024 29.858133-0.170667 44.782933-0.034133 3.908267 0.034133 4.804267-1.7408 4.778667-5.1712-0.085333-14.08-0.0256-28.151467-0.034133-42.222933z m443.776-0.452267c0 14.208 0.085333 28.424533-0.059734 42.632533-0.042667 3.831467 1.3056 5.248 5.179734 5.213867 14.498133-0.145067 28.996267-0.162133 43.485866 0.042667 3.959467 0.059733 5.2224-1.3568 5.213867-5.154134-0.085333-28.424533-0.085333-56.849067-0.008533-85.2736 0.008533-3.566933-1.092267-4.949333-4.906667-4.8896-14.353067 0.213333-28.706133 0.0768-43.0592 0.085334-5.768533 0-5.819733 0.008533-5.8368 5.9904-0.034133 13.781333-0.008533 27.5712-0.008533 41.352533zM758.638933 57.617067l-0.1024 41.002666 0.1536-0.093866h-20.5824l0.1536 0.093866-0.1024-41.002666h20.48zM0.878933 467.217067l41.002667 0.1024-0.093867-0.1536v20.5824l0.093867-0.1536-41.002667 0.1024v-20.48zM1024.878933 917.777067l-41.002666-0.1024 0.093866 0.1536v-20.5824l-0.093866 0.1536 41.002666-0.1024v20.48zM983.876267 917.674667c0.017067 13.687467 0.0256 27.374933 0.042666 41.0624h-20.48l0.1024-41.002667-0.1536 0.093867h20.5824l-0.093866-0.1536zM144.631467 388.241067c0-18.909867 0.1024-37.819733-0.085334-56.721067-0.034133-3.9168 1.1264-5.188267 5.060267-5.162667 24.021333 0.145067 48.0512 0.145067 72.072533 0 3.9936-0.0256 5.026133 1.3568 5.009067 5.205334-0.128 37.8112-0.128 75.630933 0 113.442133 0.008533 3.754667-1.092267 4.855467-4.8384 4.829867-24.1664-0.1536-48.3328-0.1536-72.4992 0-3.797333 0.0256-4.8384-1.169067-4.804267-4.872534 0.1792-18.909867 0.085333-37.819733 0.085334-56.721066z m20.0192-42.589867c-0.145067 1.467733-0.315733 2.423467-0.315734 3.3792-0.017067 25.864533 0.034133 51.729067-0.0768 77.5936-0.017067 3.157333 1.3824 3.899733 4.061867 3.8912 11.656533-0.0256 23.304533-0.034133 34.961067 0.008533 2.9696 0.008533 4.360533-1.1008 4.352-4.2752-0.0768-25.582933-0.068267-51.157333-0.017067-76.740266 0.008533-2.926933-1.134933-3.968-4.078933-3.899734-6.9632 0.162133-13.9264 0.0512-20.8896 0.0512-5.922133-0.008533-11.8528-0.008533-17.9968-0.008533zM963.037867 388.497067c0 18.909867-0.0768 37.819733 0.068266 56.721066 0.0256 3.5584-1.1008 4.625067-4.6336 4.608-24.311467-0.128-48.622933-0.136533-72.925866 0-3.601067 0.017067-4.573867-1.1776-4.565334-4.6592 0.1024-37.956267 0.110933-75.912533-0.008533-113.8688-0.008533-3.694933 1.0752-4.957867 4.8384-4.9408 24.1664 0.128 48.3328 0.136533 72.4992 0 3.822933-0.017067 4.821333 1.3568 4.7872 4.992-0.136533 19.0464-0.059733 38.101333-0.059733 57.147734z m-19.9424-42.538667c-1.493333-0.110933-2.730667-0.290133-3.976534-0.290133-11.511467-0.017067-23.022933 0.128-34.5344-0.093867-3.720533-0.068267-4.565333 1.425067-4.5568 4.753067 0.0768 25.156267 0.093867 50.304-0.008533 75.460266-0.017067 3.549867 1.365333 4.7872 4.770133 4.7616 11.3664-0.093867 22.741333-0.110933 34.107734 0.017067 3.498667 0.034133 4.548267-1.271467 4.522666-4.7616-0.136533-25.156267-0.068267-50.304-0.085333-75.460267 0.008533-1.390933-0.136533-2.773333-0.238933-4.386133z" p-id="4305"></path><path d="M738.2016 118.954667c-11.886933-0.093867-23.7824-0.3584-35.669333-0.2048-3.985067 0.0512-5.3248-1.186133-4.992-5.0944 0.298667-3.515733 0.2304-7.0912 0.017066-10.615467-0.196267-3.217067 1.1008-4.164267 4.206934-4.1216 10.624 0.145067 21.256533 0.068267 31.880533 0.034133 1.544533-0.008533 3.089067-0.221867 4.6336-0.341333l-0.1536-0.093867v20.5824l0.0768-0.145066zM758.536533 98.619733c11.741867 0.119467 23.492267 0.4352 35.234134 0.256 4.258133-0.068267 5.956267 1.0496 5.504 5.4528-0.349867 3.362133-0.221867 6.801067-0.0256 10.1888 0.187733 3.131733-0.930133 4.2496-4.130134 4.1984-10.624-0.1536-21.256533-0.068267-31.880533-0.042666-1.544533 0-3.0976 0.1792-4.642133 0.2816l0.093866 0.1536v-20.5824l-0.1536 0.093866z" p-id="4306"></path><path d="M758.596267 118.954667c-0.119467 11.7504-0.4352 23.509333-0.256 35.259733 0.068267 4.309333-1.1264 5.922133-5.486934 5.4784-3.370667-0.341333-6.8096-0.2304-10.197333-0.0256-3.182933 0.196267-4.1984-1.032533-4.155733-4.1728 0.145067-10.632533 0.068267-21.265067 0.042666-31.906133-0.008533-1.544533-0.221867-3.089067-0.341333-4.6336l-0.093867 0.1536h20.5824l-0.093866-0.1536zM41.8816 467.319467c0.119467-11.741867 0.4352-23.492267 0.256-35.234134-0.068267-4.258133 1.0496-5.956267 5.4528-5.504 3.362133 0.349867 6.801067 0.221867 10.1888 0.0256 3.131733-0.187733 4.2496 0.930133 4.1984 4.130134-0.1536 10.624-0.068267 21.256533-0.042667 31.880533 0 1.544533 0.1792 3.0976 0.2816 4.642133l0.1536-0.093866H41.787733l0.093867 0.1536zM62.216533 467.259733c11.741867 0.119467 23.492267 0.4352 35.234134 0.256 4.258133-0.068267 5.956267 1.0496 5.504 5.4528-0.349867 3.362133-0.221867 6.801067-0.0256 10.1888 0.187733 3.131733-0.930133 4.2496-4.130134 4.1984-10.624-0.1536-21.256533-0.068267-31.880533-0.042666-1.544533 0-3.0976 0.1792-4.642133 0.2816l0.093866 0.1536v-20.5824l-0.1536 0.093866z" p-id="4307"></path><path d="M62.276267 487.594667c-0.119467 11.7504-0.4352 23.509333-0.247467 35.259733 0.068267 4.309333-1.1264 5.922133-5.486933 5.4784-3.370667-0.341333-6.8096-0.2304-10.197334-0.0256-3.182933 0.196267-4.1984-1.032533-4.155733-4.1728 0.145067-10.632533 0.068267-21.265067 0.042667-31.906133-0.008533-1.544533-0.221867-3.089067-0.341334-4.6336l-0.093866 0.1536H62.378667l-0.1024-0.1536zM963.541333 897.339733c0.093867-11.886933 0.3584-23.7824 0.2048-35.669333-0.0512-3.985067 1.186133-5.3248 5.0944-4.992 3.515733 0.298667 7.0912 0.2304 10.615467 0.017067 3.217067-0.196267 4.164267 1.1008 4.1216 4.206933-0.145067 10.624-0.068267 21.256533-0.034133 31.880533 0.008533 1.544533 0.221867 3.089067 0.341333 4.6336l0.093867-0.1536h-20.5824l0.145066 0.0768z" p-id="4308"></path><path d="M963.541333 917.7344c-11.7504-0.119467-23.509333-0.4352-35.259733-0.247467-4.309333 0.068267-5.922133-1.1264-5.4784-5.486933 0.341333-3.370667 0.2304-6.8096 0.0256-10.197333-0.196267-3.182933 1.032533-4.1984 4.1728-4.155734 10.632533 0.145067 21.265067 0.068267 31.906133 0.042667 1.544533-0.008533 3.089067-0.221867 4.6336-0.341333l-0.1536-0.093867v20.5824l0.1536-0.1024zM553.847467 636.637867H316.629333c-5.76 0-5.768533-0.008533-5.768533-5.922134V301.3376c0-6.144 0.008533-6.144 5.973333-6.144h474.0096c5.973333 0 5.981867 0.008533 5.981867 6.135467v328.951466c0 6.357333-0.008533 6.365867-6.186667 6.365867-78.933333-0.008533-157.866667-0.008533-236.791466-0.008533z m0.136533-322.500267c-72.814933 0-145.629867 0.008533-218.453333-0.034133-3.498667 0-5.76 0.0768-5.76 4.8384 0.136533 97.988267 0.119467 195.976533 0.034133 293.9648 0 3.6608 1.373867 4.864 4.727467 4.608 0.989867-0.0768 1.988267 0 2.986666 0h209.493334c0.9984 0 1.9968-0.085333 2.986666 0.008533 3.7376 0.3328 4.983467-1.544533 5.0688-5.0688 0.085333-3.387733 0.477867-6.801067 1.1008-10.129067 9.275733-49.774933 54.6304-86.766933 107.127467-82.824533 30.225067 2.269867 54.596267 15.470933 73.2672 39.108267 12.561067 15.8976 19.669333 34.090667 20.881067 54.4256 0.196267 3.217067 1.493333 4.642133 4.727466 4.5056 2.8416-0.119467 5.691733-0.008533 8.533334-0.017067 7.082667-0.008533 7.082667-0.008533 7.082666-6.869333V321.3824c0-7.227733 0-7.236267-7.0656-7.236267-72.2432-0.008533-144.4864-0.008533-216.738133-0.008533z m102.109867 303.377067c24.6016 0 49.2032 0.059733 73.796266-0.034134 7.893333-0.0256 9.540267 2.065067 7.927467-9.019733-6.690133-45.960533-51.976533-79.914667-101.666133-67.677867-33.7664 8.311467-57.531733 35.899733-62.071467 70.749867-0.6912 5.307733-0.170667 5.956267 5.230933 5.9648 25.591467 0.0256 51.191467 0.017067 76.782934 0.017067z" p-id="4309"></path></svg>