<?xml version="1.0" standalone="no"?><!DOCTYPE svg PUBLIC "-//W3C//DTD SVG 1.1//EN" "http://www.w3.org/Graphics/SVG/1.1/DTD/svg11.dtd"><svg t="1736908991452" class="icon" viewBox="0 0 1024 1024" version="1.1" xmlns="http://www.w3.org/2000/svg" p-id="4709" xmlns:xlink="http://www.w3.org/1999/xlink" width="200" height="200"><path d="M976.457143 471.771429L731.428571 153.6C691.2 102.4 625.371429 73.142857 559.542857 73.142857H0v731.428572h760.685714c135.314286 0 252.342857-43.885714 263.314286-171.885715 3.657143-58.514286-14.628571-113.371429-47.542857-160.914285z m-299.885714 237.714285H95.085714V168.228571h427.885715c51.2 0 98.742857 21.942857 131.657142 62.171429l186.514286 234.057143c25.6 32.914286 40.228571 73.142857 36.571429 120.685714-7.314286 91.428571-98.742857 124.342857-201.142857 124.342857zM0 950.857143h921.6v-73.142857H0v73.142857z m402.285714-497.371429c0 29.257143-25.6 54.857143-54.857143 54.857143h-146.285714c-29.257143 0-54.857143-25.6-54.857143-54.857143v-29.257143c0-29.257143 25.6-54.857143 54.857143-54.857142h146.285714c29.257143 0 54.857143 25.6 54.857143 54.857142v29.257143z m299.885715 0c0 29.257143-25.6 54.857143-54.857143 54.857143h-146.285715c-29.257143 0-54.857143-25.6-54.857142-54.857143v-29.257143c0-29.257143 25.6-54.857143 54.857142-54.857142h146.285715c29.257143 0 54.857143 25.6 54.857143 54.857142v29.257143z" p-id="4710" fill="#cdcdcd"></path></svg>